<svg width="158" height="158" viewBox="0 0 158 158" fill="none" xmlns="http://www.w3.org/2000/svg">
<mask id="mask0_405_937" style="mask-type:luminance" maskUnits="userSpaceOnUse" x="0" y="0" width="158" height="158">
<path d="M0.739746 0.708374H157.771V157.74H0.739746V0.708374Z" fill="white"/>
</mask>
<g mask="url(#mask0_405_937)">
<mask id="mask1_405_937" style="mask-type:luminance" maskUnits="userSpaceOnUse" x="0" y="0" width="158" height="158">
<path d="M79.2554 0.708374C35.8908 0.708374 0.739746 35.8594 0.739746 79.224C0.739746 122.589 35.8908 157.74 79.2554 157.74C122.62 157.74 157.771 122.589 157.771 79.224C157.771 35.8594 122.62 0.708374 79.2554 0.708374Z" fill="white"/>
</mask>
<g mask="url(#mask1_405_937)">
<path d="M0.739746 0.708374H157.771V157.74H0.739746V0.708374Z" fill="#FFE7DA"/>
</g>
</g>
<mask id="mask2_405_937" style="mask-type:luminance" maskUnits="userSpaceOnUse" x="18" y="98" width="45" height="14">
<path d="M18.25 98.9949H62.0469V111.349H18.25V98.9949Z" fill="white"/>
</mask>
<g mask="url(#mask2_405_937)">
<path d="M61.7656 105.24C61.7656 105.651 61.625 106.057 61.349 106.458C61.0677 106.865 60.6563 107.255 60.1094 107.63C59.5625 108.01 58.8958 108.37 58.099 108.714C57.3073 109.052 56.4063 109.37 55.3958 109.656C54.3854 109.948 53.2865 110.208 52.099 110.432C50.9063 110.662 49.6563 110.854 48.3333 111.01C47.0156 111.167 45.6563 111.287 44.2552 111.365C42.8542 111.448 41.4375 111.49 40.0104 111.49C38.5781 111.49 37.1667 111.448 35.7656 111.365C34.3594 111.287 33 111.167 31.6823 111.01C30.3594 110.854 29.1094 110.662 27.9219 110.432C26.7292 110.208 25.6302 109.948 24.6198 109.656C23.6146 109.37 22.7083 109.052 21.9167 108.714C21.125 108.37 20.4531 108.01 19.9063 107.63C19.3594 107.255 18.9479 106.865 18.6667 106.458C18.3906 106.057 18.25 105.651 18.25 105.24C18.25 104.833 18.3906 104.427 18.6667 104.021C18.9479 103.62 19.3594 103.229 19.9063 102.849C20.4531 102.474 21.125 102.115 21.9167 101.771C22.7083 101.432 23.6146 101.115 24.6198 100.823C25.6302 100.537 26.7292 100.276 27.9219 100.047C29.1094 99.823 30.3594 99.6303 31.6823 99.474C33 99.3126 34.3594 99.198 35.7656 99.1147C37.1667 99.0365 38.5781 98.9949 40.0104 98.9949C41.4375 98.9949 42.8542 99.0365 44.2552 99.1147C45.6563 99.198 47.0156 99.3126 48.3333 99.474C49.6563 99.6303 50.9063 99.823 52.099 100.047C53.2865 100.276 54.3854 100.537 55.3958 100.823C56.4063 101.115 57.3073 101.432 58.099 101.771C58.8958 102.115 59.5625 102.474 60.1094 102.849C60.6563 103.229 61.0677 103.62 61.349 104.021C61.625 104.427 61.7656 104.833 61.7656 105.24Z" fill="#F1F1F1"/>
</g>
<mask id="mask3_405_937" style="mask-type:luminance" maskUnits="userSpaceOnUse" x="99" y="98" width="44" height="14">
<path d="M99.3389 98.9949H142.922V111.349H99.3389V98.9949Z" fill="white"/>
</mask>
<g mask="url(#mask3_405_937)">
<path d="M142.854 105.24C142.854 105.651 142.719 106.057 142.438 106.458C142.162 106.865 141.745 107.255 141.198 107.63C140.651 108.01 139.985 108.37 139.188 108.714C138.396 109.052 137.495 109.37 136.485 109.656C135.474 109.948 134.375 110.208 133.188 110.432C132 110.662 130.745 110.854 129.422 111.01C128.104 111.167 126.745 111.287 125.344 111.365C123.943 111.448 122.526 111.49 121.099 111.49C119.667 111.49 118.256 111.448 116.854 111.365C115.453 111.287 114.089 111.167 112.771 111.01C111.453 110.854 110.198 110.662 109.011 110.432C107.823 110.208 106.724 109.948 105.714 109.656C104.703 109.37 103.802 109.052 103.006 108.714C102.214 108.37 101.542 108.01 100.995 107.63C100.448 107.255 100.037 106.865 99.7555 106.458C99.4795 106.057 99.3389 105.651 99.3389 105.24C99.3389 104.833 99.4795 104.427 99.7555 104.021C100.037 103.62 100.448 103.229 100.995 102.849C101.542 102.474 102.214 102.115 103.006 101.771C103.802 101.432 104.703 101.115 105.714 100.823C106.724 100.537 107.823 100.276 109.011 100.047C110.198 99.823 111.453 99.6303 112.771 99.474C114.089 99.3126 115.453 99.198 116.854 99.1147C118.256 99.0365 119.667 98.9949 121.099 98.9949C122.526 98.9949 123.943 99.0365 125.344 99.1147C126.745 99.198 128.104 99.3126 129.422 99.474C130.745 99.6303 132 99.823 133.188 100.047C134.375 100.276 135.474 100.537 136.485 100.823C137.495 101.115 138.396 101.432 139.188 101.771C139.985 102.115 140.651 102.474 141.198 102.849C141.745 103.229 142.162 103.62 142.438 104.021C142.719 104.427 142.854 104.833 142.854 105.24Z" fill="#F1F1F1"/>
</g>
<path d="M46.4577 60.8923C46.8171 60.309 47.3379 59.9131 48.0202 59.7048C48.7129 59.486 49.5723 59.3715 50.6035 59.3715C51.6452 59.3715 52.4681 59.4652 53.0827 59.6423C53.7077 59.8246 54.1764 60.0485 54.4993 60.309C54.8327 60.559 55.0671 60.934 55.2077 61.434C55.4264 62.0485 55.541 62.9913 55.541 64.2673V80.684C55.541 85.4652 54.0514 89.809 51.0827 93.7256C49.6243 95.5746 47.7546 97.0694 45.4785 98.2048C43.1973 99.3402 40.6712 99.9131 37.8952 99.9131C35.1296 99.9131 32.6087 99.335 30.3327 98.184C28.0671 97.0173 26.2337 95.4965 24.8327 93.6215C21.8848 89.7777 20.416 85.4288 20.416 80.5798V64.2048C20.416 63.3454 20.4421 62.7048 20.4993 62.2881C20.5514 61.8715 20.7285 61.3923 21.0202 60.8506C21.3118 60.2985 21.7962 59.9131 22.4785 59.7048C23.1712 59.486 24.0931 59.3715 25.2493 59.3715C26.416 59.3715 27.3379 59.486 28.0202 59.7048C28.7129 59.9131 29.1868 60.2881 29.4368 60.8298C29.8796 61.6631 30.1035 62.809 30.1035 64.2673V80.5798C30.1035 82.7881 30.6452 84.8871 31.7285 86.8715C32.2702 87.8871 33.0827 88.7048 34.166 89.3298C35.2598 89.9444 36.5514 90.2465 38.041 90.2465C40.6764 90.2465 42.6504 89.2673 43.9577 87.309C45.2598 85.3506 45.916 83.0902 45.916 80.5173V63.8923C45.916 62.4756 46.0931 61.4756 46.4577 60.8923Z" fill="#F4AFD5"/>
<path d="M96.5156 70.8298C98.8333 71.861 99.9948 73.1162 99.9948 74.6006C99.9948 75.2152 99.7031 76.1995 99.1198 77.5589C98.5365 78.9235 98.0469 80.111 97.6615 81.1214L91.6823 95.6839C91.125 97.2829 90.2135 98.4079 88.9531 99.0589C88.4115 99.3089 87.724 99.4339 86.8906 99.4339C86.0573 99.4339 85.25 99.1214 84.474 98.4964C83.6927 97.861 83.1823 97.2152 82.9323 96.5589L82.4948 95.6214C82.2031 94.9027 81.1302 92.0745 79.2865 87.1423C78.9219 88.0173 78.3906 89.4443 77.6823 91.4131C76.974 93.387 76.5156 94.6214 76.3073 95.1214C76.1094 95.611 75.9844 95.9339 75.9323 96.1006C75.875 96.2568 75.724 96.5537 75.474 96.9964C75.224 97.4287 74.9323 97.8037 74.599 98.1214C73.7344 98.9964 72.7448 99.4339 71.6198 99.4339C70.4948 99.4339 69.5469 99.1214 68.7865 98.4964C68.0208 97.861 67.5156 97.2152 67.2656 96.5589L59.0573 76.5381C58.6927 75.4548 58.5156 74.7568 58.5156 74.4339C58.5156 72.9756 59.5469 71.8298 61.6198 70.9964C62.7708 70.5277 63.7083 70.2881 64.4323 70.2881C65.1667 70.2881 65.7552 70.4495 66.2031 70.7673C66.6615 71.0745 66.9792 71.3818 67.1615 71.6839C67.3385 71.9912 67.4844 72.3089 67.599 72.6423C68.2083 74.0902 69.4948 77.4912 71.4531 82.8506L74.6615 74.0381C74.8802 73.3193 75.276 72.6839 75.849 72.1423C76.901 71.0902 77.974 70.5589 79.0573 70.5589C80.151 70.5589 81.0885 70.8506 81.8698 71.4339C82.6458 72.0173 83.1823 72.6006 83.474 73.1839L83.9115 74.1006C85.7135 79.1735 86.776 82.0693 87.099 82.7881L90.4323 73.7673C91.2917 71.4495 92.5885 70.2881 94.3281 70.2881C95.0208 70.2881 95.75 70.4704 96.5156 70.8298Z" fill="#F4AFD5"/>
<path d="M129.007 60.8923C129.366 60.309 129.887 59.9131 130.569 59.7048C131.262 59.486 132.121 59.3715 133.152 59.3715C134.194 59.3715 135.017 59.4652 135.632 59.6423C136.257 59.8246 136.725 60.0485 137.048 60.309C137.382 60.559 137.616 60.934 137.757 61.434C137.975 62.0485 138.09 62.9913 138.09 64.2673V80.684C138.09 85.4652 136.6 89.809 133.632 93.7256C132.173 95.5746 130.303 97.0694 128.027 98.2048C125.746 99.3402 123.22 99.9131 120.444 99.9131C117.678 99.9131 115.158 99.335 112.882 98.184C110.616 97.0173 108.783 95.4965 107.382 93.6215C104.434 89.7777 102.965 85.4288 102.965 80.5798V64.2048C102.965 63.3454 102.991 62.7048 103.048 62.2881C103.1 61.8715 103.277 61.3923 103.569 60.8506C103.861 60.2985 104.345 59.9131 105.027 59.7048C105.72 59.486 106.642 59.3715 107.798 59.3715C108.965 59.3715 109.887 59.486 110.569 59.7048C111.262 59.9131 111.736 60.2881 111.986 60.8298C112.428 61.6631 112.652 62.809 112.652 64.2673V80.5798C112.652 82.7881 113.194 84.8871 114.277 86.8715C114.819 87.8871 115.632 88.7048 116.715 89.3298C117.809 89.9444 119.1 90.2465 120.59 90.2465C123.225 90.2465 125.199 89.2673 126.507 87.309C127.809 85.3506 128.465 83.0902 128.465 80.5173V63.8923C128.465 62.4756 128.642 61.4756 129.007 60.8923Z" fill="#F4AFD5"/>
</svg>
